<svg version="1.0" preserveAspectRatio="xMidYMid meet" viewBox="39 129.749996886 299.25 107.999997408" zoomAndPan="magnify" xmlns:xlink="http://www.w3.org/1999/xlink" xmlns="http://www.w3.org/2000/svg" style="max-height: 500px" width="299.25" height="107.999997408"><defs><g/><clipPath id="e3dc6b9743"><path clip-rule="nonzero" d="M 299.808594 209.503906 L 318.558594 209.503906 L 318.558594 228.253906 L 299.808594 228.253906 Z M 299.808594 209.503906"/></clipPath></defs><rect fill-opacity="1" height="449.999989" y="-37.499999" fill="#ffffff" width="450" x="-37.5"/><rect fill-opacity="1" height="449.999989" y="-37.499999" fill="#ffffff" width="450" x="-37.5"/><g fill-opacity="1" fill="#1b1001"><g transform="translate(39.023439, 191.874971)"><g><path d="M 25.046875 0.953125 C 20.617188 0.953125 16.335938 0.351562 12.203125 -0.84375 C 8.066406 -2.039062 4.742188 -3.597656 2.234375 -5.515625 L 6.640625 -15.28125 C 9.035156 -13.519531 11.882812 -12.101562 15.1875 -11.03125 C 18.5 -9.96875 21.8125 -9.4375 25.125 -9.4375 C 28.800781 -9.4375 31.519531 -9.984375 33.28125 -11.078125 C 35.039062 -12.171875 35.921875 -13.625 35.921875 -15.4375 C 35.921875 -16.769531 35.398438 -17.875 34.359375 -18.75 C 33.316406 -19.632812 31.984375 -20.34375 30.359375 -20.875 C 28.734375 -21.414062 26.535156 -22.003906 23.765625 -22.640625 C 19.492188 -23.648438 16 -24.660156 13.28125 -25.671875 C 10.5625 -26.691406 8.226562 -28.320312 6.28125 -30.5625 C 4.332031 -32.800781 3.359375 -35.785156 3.359375 -39.515625 C 3.359375 -42.773438 4.238281 -45.722656 6 -48.359375 C 7.757812 -50.992188 10.410156 -53.082031 13.953125 -54.625 C 17.503906 -56.175781 21.835938 -56.953125 26.953125 -56.953125 C 30.523438 -56.953125 34.019531 -56.523438 37.4375 -55.671875 C 40.851562 -54.828125 43.84375 -53.601562 46.40625 -52 L 42.40625 -42.15625 C 37.226562 -45.09375 32.050781 -46.5625 26.875 -46.5625 C 23.25 -46.5625 20.566406 -45.972656 18.828125 -44.796875 C 17.097656 -43.628906 16.234375 -42.082031 16.234375 -40.15625 C 16.234375 -38.238281 17.234375 -36.8125 19.234375 -35.875 C 21.234375 -34.945312 24.289062 -34.03125 28.40625 -33.125 C 32.664062 -32.101562 36.15625 -31.085938 38.875 -30.078125 C 41.59375 -29.066406 43.925781 -27.46875 45.875 -25.28125 C 47.820312 -23.09375 48.796875 -20.132812 48.796875 -16.40625 C 48.796875 -13.195312 47.898438 -10.273438 46.109375 -7.640625 C 44.328125 -5.003906 41.648438 -2.910156 38.078125 -1.359375 C 34.503906 0.179688 30.160156 0.953125 25.046875 0.953125 Z M 25.046875 0.953125"/></g></g></g><g fill-opacity="1" fill="#1b1001"><g transform="translate(90.058478, 191.874971)"><g><path d="M 57.59375 0 L 57.515625 -33.59375 L 41.046875 -5.921875 L 35.203125 -5.921875 L 18.796875 -32.875 L 18.796875 0 L 6.640625 0 L 6.640625 -56 L 17.359375 -56 L 38.3125 -21.203125 L 58.953125 -56 L 69.59375 -56 L 69.765625 0 Z M 57.59375 0"/></g></g></g><g fill-opacity="1" fill="#1b1001"><g transform="translate(166.451058, 191.874971)"><g><path d="M 43.515625 -12 L 17.515625 -12 L 12.5625 0 L -0.71875 0 L 24.234375 -56 L 37.046875 -56 L 62.078125 0 L 48.484375 0 Z M 39.4375 -21.84375 L 30.5625 -43.28125 L 21.6875 -21.84375 Z M 39.4375 -21.84375"/></g></g></g><g fill-opacity="1" fill="#1b1001"><g transform="translate(227.725102, 191.874971)"><g><path d="M 42.3125 0 L 31.515625 -15.59375 L 19.59375 -15.59375 L 19.59375 0 L 6.640625 0 L 6.640625 -56 L 30.875 -56 C 35.832031 -56 40.140625 -55.171875 43.796875 -53.515625 C 47.453125 -51.867188 50.265625 -49.523438 52.234375 -46.484375 C 54.210938 -43.441406 55.203125 -39.84375 55.203125 -35.6875 C 55.203125 -31.519531 54.203125 -27.929688 52.203125 -24.921875 C 50.203125 -21.910156 47.363281 -19.601562 43.6875 -18 L 56.234375 0 Z M 42.078125 -35.6875 C 42.078125 -38.832031 41.0625 -41.242188 39.03125 -42.921875 C 37.007812 -44.597656 34.050781 -45.4375 30.15625 -45.4375 L 19.59375 -45.4375 L 19.59375 -25.921875 L 30.15625 -25.921875 C 34.050781 -25.921875 37.007812 -26.773438 39.03125 -28.484375 C 41.0625 -30.191406 42.078125 -32.59375 42.078125 -35.6875 Z M 42.078125 -35.6875"/></g></g></g><g fill-opacity="1" fill="#1b1001"><g transform="translate(286.519394, 191.874971)"><g><path d="M 18.234375 -45.4375 L 0.3125 -45.4375 L 0.3125 -56 L 49.125 -56 L 49.125 -45.4375 L 31.203125 -45.4375 L 31.203125 0 L 18.234375 0 Z M 18.234375 -45.4375"/></g></g></g><g fill-opacity="1" fill="#737373"><g transform="translate(83.979417, 232.377494)"><g><path d="M 3.3125 -28 L 16.046875 -28 C 19.078125 -28 21.757812 -27.414062 24.09375 -26.25 C 26.425781 -25.09375 28.238281 -23.460938 29.53125 -21.359375 C 30.832031 -19.253906 31.484375 -16.800781 31.484375 -14 C 31.484375 -11.195312 30.832031 -8.742188 29.53125 -6.640625 C 28.238281 -4.535156 26.425781 -2.898438 24.09375 -1.734375 C 21.757812 -0.578125 19.078125 0 16.046875 0 L 3.3125 0 Z M 15.71875 -5.3125 C 18.519531 -5.3125 20.753906 -6.09375 22.421875 -7.65625 C 24.085938 -9.21875 24.921875 -11.332031 24.921875 -14 C 24.921875 -16.664062 24.085938 -18.78125 22.421875 -20.34375 C 20.753906 -21.90625 18.519531 -22.6875 15.71875 -22.6875 L 9.796875 -22.6875 L 9.796875 -5.3125 Z M 15.71875 -5.3125"/></g></g></g><g fill-opacity="1" fill="#737373"><g transform="translate(117.016139, 232.377494)"><g><path d="M 21.15625 0 L 15.765625 -7.796875 L 9.796875 -7.796875 L 9.796875 0 L 3.3125 0 L 3.3125 -28 L 15.4375 -28 C 17.914062 -28 20.066406 -27.582031 21.890625 -26.75 C 23.722656 -25.925781 25.128906 -24.753906 26.109375 -23.234375 C 27.097656 -21.710938 27.59375 -19.914062 27.59375 -17.84375 C 27.59375 -15.757812 27.09375 -13.960938 26.09375 -12.453125 C 25.09375 -10.953125 23.675781 -9.800781 21.84375 -9 L 28.125 0 Z M 21.046875 -17.84375 C 21.046875 -19.414062 20.535156 -20.617188 19.515625 -21.453125 C 18.503906 -22.296875 17.023438 -22.71875 15.078125 -22.71875 L 9.796875 -22.71875 L 9.796875 -12.953125 L 15.078125 -12.953125 C 17.023438 -12.953125 18.503906 -13.378906 19.515625 -14.234375 C 20.535156 -15.085938 21.046875 -16.289062 21.046875 -17.84375 Z M 21.046875 -17.84375"/></g></g></g><g fill-opacity="1" fill="#737373"><g transform="translate(146.413217, 232.377494)"><g><path d="M 16.765625 -9.921875 L 16.765625 0 L 10.28125 0 L 10.28125 -10 L -0.5625 -28 L 6.3125 -28 L 13.796875 -15.5625 L 21.28125 -28 L 27.640625 -28 Z M 16.765625 -9.921875"/></g></g></g><g fill-opacity="1" fill="#737373"><g transform="translate(173.450534, 232.377494)"><g/></g></g><g fill-opacity="1" fill="#737373"><g transform="translate(184.769404, 232.377494)"><g><path d="M 25 -5.203125 L 25 0 L 3.3125 0 L 3.3125 -28 L 24.484375 -28 L 24.484375 -22.796875 L 9.765625 -22.796875 L 9.765625 -16.71875 L 22.765625 -16.71875 L 22.765625 -11.6875 L 9.765625 -11.6875 L 9.765625 -5.203125 Z M 25 -5.203125"/></g></g></g><g fill-opacity="1" fill="#737373"><g transform="translate(211.606736, 232.377494)"><g><path d="M 16.765625 -9.921875 L 16.765625 0 L 10.28125 0 L 10.28125 -10 L -0.5625 -28 L 6.3125 -28 L 13.796875 -15.5625 L 21.28125 -28 L 27.640625 -28 Z M 16.765625 -9.921875"/></g></g></g><g fill-opacity="1" fill="#737373"><g transform="translate(238.644054, 232.377494)"><g><path d="M 25 -5.203125 L 25 0 L 3.3125 0 L 3.3125 -28 L 24.484375 -28 L 24.484375 -22.796875 L 9.765625 -22.796875 L 9.765625 -16.71875 L 22.765625 -16.71875 L 22.765625 -11.6875 L 9.765625 -11.6875 L 9.765625 -5.203125 Z M 25 -5.203125"/></g></g></g><g fill-opacity="1" fill="#737373"><g transform="translate(265.481386, 232.377494)"><g><path d="M 12.515625 0.484375 C 10.304688 0.484375 8.164062 0.1875 6.09375 -0.40625 C 4.03125 -1.007812 2.375 -1.796875 1.125 -2.765625 L 3.3125 -7.640625 C 4.519531 -6.753906 5.945312 -6.046875 7.59375 -5.515625 C 9.25 -4.984375 10.90625 -4.71875 12.5625 -4.71875 C 14.394531 -4.71875 15.75 -4.988281 16.625 -5.53125 C 17.507812 -6.082031 17.953125 -6.8125 17.953125 -7.71875 C 17.953125 -8.382812 17.691406 -8.9375 17.171875 -9.375 C 16.660156 -9.820312 15.992188 -10.175781 15.171875 -10.4375 C 14.359375 -10.707031 13.257812 -11 11.875 -11.3125 C 9.75 -11.820312 8.003906 -12.328125 6.640625 -12.828125 C 5.273438 -13.335938 4.109375 -14.148438 3.140625 -15.265625 C 2.171875 -16.390625 1.6875 -17.890625 1.6875 -19.765625 C 1.6875 -21.390625 2.125 -22.859375 3 -24.171875 C 3.875 -25.492188 5.195312 -26.539062 6.96875 -27.3125 C 8.75 -28.09375 10.921875 -28.484375 13.484375 -28.484375 C 15.265625 -28.484375 17.007812 -28.269531 18.71875 -27.84375 C 20.425781 -27.414062 21.921875 -26.800781 23.203125 -26 L 21.203125 -21.078125 C 18.609375 -22.546875 16.019531 -23.28125 13.4375 -23.28125 C 11.625 -23.28125 10.285156 -22.984375 9.421875 -22.390625 C 8.554688 -21.804688 8.125 -21.035156 8.125 -20.078125 C 8.125 -19.117188 8.625 -18.40625 9.625 -17.9375 C 10.625 -17.46875 12.148438 -17.007812 14.203125 -16.5625 C 16.335938 -16.050781 18.082031 -15.539062 19.4375 -15.03125 C 20.800781 -14.53125 21.96875 -13.734375 22.9375 -12.640625 C 23.914062 -11.546875 24.40625 -10.066406 24.40625 -8.203125 C 24.40625 -6.597656 23.957031 -5.132812 23.0625 -3.8125 C 22.164062 -2.5 20.820312 -1.453125 19.03125 -0.671875 C 17.25 0.0976562 15.078125 0.484375 12.515625 0.484375 Z M 12.515625 0.484375"/></g></g></g><g clip-path="url(#e3dc6b9743)"><path fill-rule="evenodd" fill-opacity="1" d="M 309.183594 209.503906 C 314.363281 209.503906 318.558594 213.699219 318.558594 218.878906 C 318.558594 224.054688 314.363281 228.253906 309.183594 228.253906 C 304.007812 228.253906 299.808594 224.054688 299.808594 218.878906 C 299.808594 213.699219 304.007812 209.503906 309.183594 209.503906 Z M 309.183594 209.503906" fill="#f4009e"/></g></svg>