<?xml version="1.0" encoding="UTF-8" standalone="no"?>
<svg
   width="266.82812"
   zoomAndPan="magnify"
   viewBox="0 0 200.12109 79.937328"
   height="106.58311"
   preserveAspectRatio="xMidYMid"
   version="1.0"
   id="svg36"
   sodipodi:docname="logo.svg"
   inkscape:version="1.4.2 (ebf0e940, 2025-05-08)"
   xmlns:inkscape="http://www.inkscape.org/namespaces/inkscape"
   xmlns:sodipodi="http://sodipodi.sourceforge.net/DTD/sodipodi-0.dtd"
   xmlns="http://www.w3.org/2000/svg"
   xmlns:svg="http://www.w3.org/2000/svg">
  <sodipodi:namedview
     id="namedview36"
     pagecolor="#ffffff"
     bordercolor="#000000"
     borderopacity="0.25"
     inkscape:showpageshadow="2"
     inkscape:pageopacity="0.0"
     inkscape:pagecheckerboard="false"
     inkscape:deskcolor="#d1d1d1"
     inkscape:zoom="1.1766257"
     inkscape:cx="260.9156"
     inkscape:cy="74.365197"
     inkscape:window-width="2560"
     inkscape:window-height="1302"
     inkscape:window-x="1710"
     inkscape:window-y="25"
     inkscape:window-maximized="1"
     inkscape:current-layer="svg36" />
  <defs
     id="defs1">
    <g
       id="g1" />
    <clipPath
       id="ab3b7d6df3">
      <path
         d="m 202.19141,182.07422 h 10.5 v 10.5 h -10.5 z m 0,0"
         clip-rule="nonzero"
         id="path1" />
    </clipPath>
  </defs>
  <g
     fill="#1b1001"
     fill-opacity="1"
     id="g4"
     transform="translate(-93.99219,-120.35547)">
    <g
       transform="translate(115.06419,163.9644)"
       id="g3">
      <g
         id="g2">
        <path
           d="m 4.109375,-25.203125 h 10.25 c 2.664063,0 5.019531,0.539063 7.0625,1.609375 2.039063,1.0625 3.625,2.554688 4.75,4.46875 1.125,1.90625 1.6875,4.085938 1.6875,6.53125 0,2.449219 -0.5625,4.625 -1.6875,6.53125 -1.125,1.90625 -2.710937,3.398438 -4.75,4.46875 C 19.378906,-0.53125 17.023438,0 14.359375,0 h -10.25 z m 10.109375,22.90625 c 2.207031,0 4.140625,-0.4375 5.796875,-1.3125 1.65625,-0.882813 2.9375,-2.097656 3.84375,-3.640625 0.914063,-1.550781 1.375,-3.332031 1.375,-5.34375 0,-2.019531 -0.460937,-3.800781 -1.375,-5.34375 -0.90625,-1.550781 -2.1875,-2.765625 -3.84375,-3.640625 -1.65625,-0.875 -3.589844,-1.3125 -5.796875,-1.3125 H 6.765625 v 20.59375 z m 0,0"
           id="path2" />
      </g>
    </g>
  </g>
  <g
     fill="#1b1001"
     fill-opacity="1"
     id="g7"
     transform="translate(-93.99219,-120.35547)">
    <g
       transform="translate(144.80025,163.9644)"
       id="g6">
      <g
         id="g5">
        <path
           d="m 21.3125,0 -5.765625,-8.09375 c -0.648437,0.074219 -1.320313,0.109375 -2.015625,0.109375 H 6.765625 V 0 h -2.65625 v -25.203125 h 9.421875 c 3.21875,0 5.738281,0.773437 7.5625,2.3125 1.820312,1.53125 2.734375,3.640625 2.734375,6.328125 0,1.96875 -0.5,3.632812 -1.5,4.984375 -0.992187,1.355469 -2.40625,2.335937 -4.25,2.9375 L 24.234375,0 Z m -7.84375,-10.265625 c 2.488281,0 4.394531,-0.550781 5.71875,-1.65625 1.320312,-1.101563 1.984375,-2.648437 1.984375,-4.640625 0,-2.039062 -0.664063,-3.601562 -1.984375,-4.6875 -1.324219,-1.09375 -3.230469,-1.640625 -5.71875,-1.640625 H 6.765625 v 12.625 z m 0,0"
           id="path4" />
      </g>
    </g>
  </g>
  <g
     fill="#1b1001"
     fill-opacity="1"
     id="g10"
     transform="translate(-93.99219,-120.35547)">
    <g
       transform="translate(170.82831,163.9644)"
       id="g9">
      <g
         id="g8">
        <path
           d="M 12.75,-8.71875 V 0 H 10.109375 V -8.71875 L 0.03125,-25.203125 H 2.875 l 8.640625,14.15625 8.640625,-14.15625 h 2.671875 z m 0,0"
           id="path7" />
      </g>
    </g>
  </g>
  <g
     fill="#1b1001"
     fill-opacity="1"
     id="g16"
     transform="translate(-93.99219,-120.35547)">
    <g
       transform="translate(203.12036,163.9644)"
       id="g15">
      <g
         id="g14">
        <path
           d="M 21.921875,-2.296875 V 0 h -17.8125 v -25.203125 h 17.28125 v 2.3125 h -14.625 v 8.953125 h 13.03125 v 2.28125 H 6.765625 v 9.359375 z m 0,0"
           id="path13" />
      </g>
    </g>
  </g>
  <g
     fill="#1b1001"
     fill-opacity="1"
     id="g19"
     transform="translate(-93.99219,-120.35547)">
    <g
       transform="translate(227.2044,163.9644)"
       id="g18">
      <g
         id="g17">
        <path
           d="M 12.75,-8.71875 V 0 H 10.109375 V -8.71875 L 0.03125,-25.203125 H 2.875 l 8.640625,14.15625 8.640625,-14.15625 h 2.671875 z m 0,0"
           id="path16" />
      </g>
    </g>
  </g>
  <g
     fill="#1b1001"
     fill-opacity="1"
     id="g22"
     transform="translate(-93.99219,-120.35547)">
    <g
       transform="translate(250.06445,163.9644)"
       id="g21">
      <g
         id="g20">
        <path
           d="M 21.921875,-2.296875 V 0 h -17.8125 v -25.203125 h 17.28125 v 2.3125 h -14.625 v 8.953125 h 13.03125 v 2.28125 H 6.765625 v 9.359375 z m 0,0"
           id="path19" />
      </g>
    </g>
  </g>
  <g
     fill="#1b1001"
     fill-opacity="1"
     id="g25"
     transform="translate(-93.99219,-120.35547)">
    <g
       transform="translate(117.09572,200.2928)"
       id="g24">
      <g
         id="g23">
        <path
           d="M 26.09375,-25.203125 V 0 H 21.3125 L 8.75,-15.296875 V 0 H 2.984375 V -25.203125 H 7.8125 L 20.34375,-9.90625 v -15.296875 z m 0,0"
           id="path22" />
      </g>
    </g>
  </g>
  <g
     fill="#1b1001"
     fill-opacity="1"
     id="g28"
     transform="translate(-93.99219,-120.35547)">
    <g
       transform="translate(146.18378,200.2928)"
       id="g27">
      <g
         id="g26">
        <path
           d="M 22.5,-4.6875 V 0 H 2.984375 V -25.203125 H 22.03125 v 4.6875 h -13.25 v 5.46875 h 11.703125 v 4.53125 H 8.78125 V -4.6875 Z m 0,0"
           id="path25" />
      </g>
    </g>
  </g>
  <g
     fill="#1b1001"
     fill-opacity="1"
     id="g31"
     transform="translate(-93.99219,-120.35547)">
    <g
       transform="translate(170.33983,200.2928)"
       id="g30">
      <g
         id="g29">
        <path
           d="m 8.203125,-20.453125 h -8.0625 v -4.75 h 21.96875 v 4.75 h -8.0625 V 0 h -5.84375 z m 0,0"
           id="path28" />
      </g>
    </g>
  </g>
  <path
     stroke-linecap="butt"
     fill="none"
     stroke-linejoin="miter"
     d="M 118.74218,67.3789 H 200.1211"
     stroke="#f4009e"
     stroke-width="2.25"
     stroke-opacity="1"
     stroke-miterlimit="4"
     id="path31" />
  <path
     stroke-linecap="butt"
     fill="none"
     stroke-linejoin="miter"
     d="M 1.33203,1.125 H 200.1211"
     stroke="#f4009e"
     stroke-width="2.25"
     stroke-opacity="1"
     stroke-miterlimit="4"
     id="path32" />
  <path
     stroke-linecap="butt"
     fill="none"
     stroke-linejoin="miter"
     d="M 1.125,0 V 68.31641"
     stroke="#f4009e"
     stroke-width="2.25"
     stroke-opacity="1"
     stroke-miterlimit="4"
     id="path33" />
  <path
     stroke-linecap="butt"
     fill="none"
     stroke-linejoin="miter"
     d="M 1.10937,67.1875 H 15.21875"
     stroke="#f4009e"
     stroke-width="2.25"
     stroke-opacity="1"
     stroke-miterlimit="4"
     id="path34" />
  <path
     stroke-linecap="butt"
     fill="none"
     stroke-linejoin="miter"
     d="M 198.99565,1.091 V 67.34491"
     stroke="#f4009e"
     stroke-width="2.25"
     stroke-opacity="1"
     stroke-miterlimit="4"
     id="path35" />
  <g
     clip-path="url(#ab3b7d6df3)"
     id="g36"
     transform="translate(-93.766829,-120.24279)">
    <path
       fill="#f4009e"
       d="m 207.46094,182.07422 c 2.91015,0 5.26562,2.35937 5.26562,5.26953 0,2.90625 -2.35547,5.26562 -5.26562,5.26562 -2.91016,0 -5.26953,-2.35937 -5.26953,-5.26562 0,-2.91016 2.35937,-5.26953 5.26953,-5.26953 z m 0,0"
       fill-opacity="1"
       fill-rule="evenodd"
       id="path36" />
  </g>
</svg>
